# xmcd CD database file
#
# Track frame offsets:
#	150
#	27052
#	64894
#	88427
#	126432
#	154207
#	175461
#	206031
#	229252
#
# Disc length: 3433 seconds
#
# Revision: 0
# Processed by: cddbd v1.5.2PL0 Copyright (c) Steve Scherf et al.
# Submitted via: CDex 1.70beta3
#
DISCID=840d6709
DTITLE=Neneh Cherry and The Thing - The Gherry Thing
DYEAR=2012
DGENRE=Jazz
TTITLE0=Cashback
TTITLE1=Dream Baby Dream
TTITLE2=Too Tough to Die
TTITLE3=Sudden Moment
TTITLE4=Accordion
TTITLE5=Golden Heart
TTITLE6=Dirt
TTITLE7=What Reason Could I Give
TTITLE8=Wrap Your Troubles in Dreams
EXTD=YEAR: 2012
EXTT0=
EXTT1=
EXTT2=
EXTT3=
EXTT4=
EXTT5=
EXTT6=
EXTT7=
EXTT8=
PLAYORDER=
